<svg width="32" height="32" viewBox="0 0 32 32" fill="none" xmlns="http://www.w3.org/2000/svg">
  <!-- Фон -->
  <rect width="32" height="32" rx="6" fill="#1f2937"/>
  
  <!-- Основное здание -->
  <rect x="6" y="12" width="12" height="16" fill="#f3f4f6" rx="1"/>
  
  <!-- Крыша основного здания -->
  <path d="M5 12 L12 6 L19 12 Z" fill="#3b82f6"/>
  
  <!-- Пристройка -->
  <rect x="18" y="16" width="8" height="12" fill="#f3f4f6" rx="1"/>
  
  <!-- Крыша пристройки -->
  <path d="M17 16 L22 11 L27 16 Z" fill="#6366f1"/>
  
  <!-- Окна основного здания -->
  <rect x="8" y="15" width="2.5" height="3" fill="#1f2937" rx="0.5"/>
  <rect x="13.5" y="15" width="2.5" height="3" fill="#1f2937" rx="0.5"/>
  <rect x="8" y="20" width="2.5" height="3" fill="#1f2937" rx="0.5"/>
  <rect x="13.5" y="20" width="2.5" height="3" fill="#1f2937" rx="0.5"/>
  
  <!-- Окна пристройки -->
  <rect x="20" y="19" width="2" height="2.5" fill="#1f2937" rx="0.5"/>
  <rect x="23" y="19" width="2" height="2.5" fill="#1f2937" rx="0.5"/>
  <rect x="20" y="23" width="2" height="2.5" fill="#1f2937" rx="0.5"/>
  <rect x="23" y="23" width="2" height="2.5" fill="#1f2937" rx="0.5"/>
  
  <!-- Дверь -->
  <rect x="11" y="25" width="2" height="3" fill="#1f2937" rx="0.5"/>
  <circle cx="12.8" cy="26.5" r="0.3" fill="#f3f4f6"/>
</svg> 