<svg width="512" height="512" viewBox="0 0 512 512" fill="none" xmlns="http://www.w3.org/2000/svg">
  <!-- Фон -->
  <rect width="512" height="512" rx="85" fill="#1f2937"/>
  
  <!-- Основное здание -->
  <rect x="96" y="192" width="192" height="256" fill="#f3f4f6" rx="16"/>
  
  <!-- Крыша основного здания -->
  <path d="M80 192 L192 96 L304 192 Z" fill="#3b82f6"/>
  
  <!-- Пристройка -->
  <rect x="288" y="256" width="128" height="192" fill="#f3f4f6" rx="16"/>
  
  <!-- Крыша пристройки -->
  <path d="M272 256 L352 176 L432 256 Z" fill="#6366f1"/>
  
  <!-- Окна основного здания -->
  <rect x="128" y="240" width="40" height="48" fill="#1f2937" rx="8"/>
  <rect x="216" y="240" width="40" height="48" fill="#1f2937" rx="8"/>
  <rect x="128" y="320" width="40" height="48" fill="#1f2937" rx="8"/>
  <rect x="216" y="320" width="40" height="48" fill="#1f2937" rx="8"/>
  
  <!-- Окна пристройки -->
  <rect x="320" y="304" width="32" height="40" fill="#1f2937" rx="8"/>
  <rect x="368" y="304" width="32" height="40" fill="#1f2937" rx="8"/>
  <rect x="320" y="368" width="32" height="40" fill="#1f2937" rx="8"/>
  <rect x="368" y="368" width="32" height="40" fill="#1f2937" rx="8"/>
  
  <!-- Дверь -->
  <rect x="176" y="400" width="32" height="48" fill="#1f2937" rx="8"/>
  <circle cx="204.8" cy="424" r="4.8" fill="#f3f4f6"/>
  
  <!-- Логотип IT -->
  <rect x="64" y="64" width="96" height="64" rx="16" fill="#3b82f6"/>
  <text x="112" y="109" text-anchor="middle" fill="white" font-family="system-ui, -apple-system, sans-serif" font-size="36" font-weight="bold">IT</text>
  
  <!-- Дополнительные детали -->
  <!-- Балкон -->
  <rect x="144" y="288" width="48" height="8" fill="#6b7280"/>
  <rect x="140" y="288" width="4" height="16" fill="#6b7280"/>
  <rect x="204" y="288" width="4" height="16" fill="#6b7280"/>
  
  <!-- Дымоход -->
  <rect x="240" y="120" width="16" height="32" fill="#6b7280" rx="4"/>
</svg> 